<svg width="216" height="59" viewBox="0 0 216 59" fill="none" xmlns="http://www.w3.org/2000/svg">
<path d="M209.675 39.3804C207.823 39.3804 206.816 38.3455 206.652 36.2758L204.283 6.20937C204.174 4.52086 204.61 3.10469 205.59 1.96087C206.625 0.817034 207.959 0.245117 209.594 0.245117C211.228 0.245117 212.562 0.817034 213.597 1.96087C214.632 3.10469 215.068 4.52086 214.904 6.20937L212.616 36.2758C212.453 38.3455 211.473 39.3804 209.675 39.3804ZM209.103 57.4366C207.524 57.4366 206.298 57.0281 205.427 56.2111C204.61 55.3396 204.201 54.114 204.201 52.5345V51.1455C204.201 49.566 204.61 48.3677 205.427 47.5506C206.298 46.6792 207.524 46.2434 209.103 46.2434H210.165C211.745 46.2434 212.943 46.6792 213.76 47.5506C214.632 48.3677 215.068 49.566 215.068 51.1455V52.5345C215.068 54.114 214.632 55.3396 213.76 56.2111C212.943 57.0281 211.745 57.4366 210.165 57.4366H209.103Z" fill="url(#paint0_linear_11_4396)"/>
<path d="M194.775 48.4493C196.082 48.4493 197.171 48.8851 198.043 49.7566C198.914 50.5736 199.35 51.6357 199.35 52.943C199.35 54.1957 198.914 55.2579 198.043 56.1293C197.171 57.0008 196.082 57.4366 194.775 57.4366H168.467C167.105 57.4366 166.016 56.9464 165.198 55.966C164.381 54.9855 164 54.0051 164.055 53.0247C164.109 52.2077 164.218 51.4996 164.381 50.9004C164.545 50.2468 164.953 49.5115 165.607 48.6945L185.951 22.3864L185.787 23.5302H169.202C167.895 23.5302 166.805 23.0945 165.934 22.223C165.062 21.3515 164.627 20.2621 164.627 18.9549C164.627 17.7021 165.062 16.6672 165.934 15.8502C166.805 14.9787 167.895 14.543 169.202 14.543H194.366C195.619 14.543 196.681 15.0059 197.553 15.9319C198.424 16.8579 198.805 18.0289 198.696 19.4451C198.642 19.9898 198.533 20.5345 198.37 21.0791C198.261 21.6238 197.907 22.2774 197.307 23.04L177.29 48.9396V48.4493H194.775Z" fill="url(#paint1_linear_11_4396)"/>
<path d="M117.004 12.9089C121.362 12.9089 124.576 13.9711 126.645 16.0953C128.715 18.1651 130.077 20.8613 130.73 24.1838L129.341 23.4485L129.995 22.1413C130.649 20.8885 131.656 19.554 133.018 18.1379C134.38 16.6672 136.014 15.4417 137.92 14.4613C139.881 13.4264 142.06 12.9089 144.456 12.9089C148.378 12.9089 151.347 13.7532 153.362 15.4417C155.432 17.1302 156.848 19.3906 157.61 22.223C158.373 25.0008 158.754 28.1055 158.754 31.537V52.4528C158.754 53.8689 158.291 55.0672 157.365 56.0477C156.439 56.9736 155.268 57.4366 153.852 57.4366C152.436 57.4366 151.265 56.9736 150.339 56.0477C149.413 55.0672 148.95 53.8689 148.95 52.4528V31.537C148.95 29.7396 148.732 28.1328 148.296 26.7166C147.861 25.246 147.071 24.0749 145.927 23.2034C144.783 22.3319 143.149 21.8962 141.025 21.8962C138.955 21.8962 137.185 22.3319 135.714 23.2034C134.244 24.0749 133.127 25.246 132.364 26.7166C131.656 28.1328 131.302 29.7396 131.302 31.537V52.4528C131.302 53.8689 130.839 55.0672 129.913 56.0477C128.987 56.9736 127.816 57.4366 126.4 57.4366C124.984 57.4366 123.813 56.9736 122.887 56.0477C121.961 55.0672 121.498 53.8689 121.498 52.4528V31.537C121.498 29.7396 121.28 28.1328 120.844 26.7166C120.409 25.246 119.619 24.0749 118.475 23.2034C117.331 22.3319 115.697 21.8962 113.573 21.8962C111.503 21.8962 109.733 22.3319 108.262 23.2034C106.792 24.0749 105.675 25.246 104.913 26.7166C104.204 28.1328 103.85 29.7396 103.85 31.537V52.4528C103.85 53.8689 103.387 55.0672 102.461 56.0477C101.536 56.9736 100.364 57.4366 98.9483 57.4366C97.5321 57.4366 96.361 56.9736 95.4351 56.0477C94.5091 55.0672 94.0461 53.8689 94.0461 52.4528V18.7098C94.0461 17.2936 94.5091 16.1226 95.4351 15.1966C96.361 14.2162 97.5321 13.726 98.9483 13.726C100.364 13.726 101.536 14.2162 102.461 15.1966C103.387 16.1226 103.85 17.2936 103.85 18.7098V22.223L102.625 21.9779C103.115 21.0519 103.796 20.0715 104.667 19.0366C105.539 17.9472 106.601 16.9396 107.854 16.0136C109.107 15.0877 110.495 14.3523 112.021 13.8077C113.546 13.2085 115.207 12.9089 117.004 12.9089Z" fill="url(#paint2_linear_11_4396)"/>
<path d="M80.9809 13.726C82.3971 13.726 83.5681 14.2162 84.4941 15.1966C85.4201 16.1225 85.883 17.2936 85.883 18.7098V39.4621C85.883 45.2357 84.2762 49.8111 81.0626 53.1881C77.849 56.5651 73.2192 58.2536 67.1732 58.2536C61.1273 58.2536 56.4975 56.5651 53.2839 53.1881C50.1247 49.8111 48.5452 45.2357 48.5452 39.4621V18.7098C48.5452 17.2936 49.0081 16.1225 49.9341 15.1966C50.8601 14.2162 52.0311 13.726 53.4473 13.726C54.8635 13.726 56.0345 14.2162 56.9605 15.1966C57.8864 16.1225 58.3494 17.2936 58.3494 18.7098V39.4621C58.3494 42.7847 59.0847 45.263 60.5554 46.897C62.026 48.4766 64.232 49.2664 67.1732 49.2664C70.169 49.2664 72.4022 48.4766 73.8728 46.897C75.3435 45.263 76.0788 42.7847 76.0788 39.4621V18.7098C76.0788 17.2936 76.5418 16.1225 77.4677 15.1966C78.3937 14.2162 79.5647 13.726 80.9809 13.726Z" fill="url(#paint3_linear_11_4396)"/>
<path d="M41.1779 0C42.4306 0 43.5472 0.490208 44.5277 1.47063C45.5625 2.39659 46.08 3.59489 46.08 5.06553C46.08 5.55574 45.9983 6.07319 45.8349 6.61787C45.726 7.10808 45.5081 7.59829 45.1813 8.0885L26.6349 34.6417L28.1055 29.0043V52.4528C28.1055 53.8689 27.6153 55.0672 26.6349 56.0476C25.7089 56.9736 24.6196 57.4366 23.3668 57.4366C22.0051 57.4366 20.834 56.9736 19.8536 56.0476C18.9277 55.0672 18.4647 53.8689 18.4647 52.4528V29.6579L19.1183 32.2723L1.47064 8.82383C0.925957 8.11574 0.544681 7.43489 0.326809 6.78127C0.108936 6.12765 0 5.52851 0 4.98383C0 3.51319 0.571915 2.31489 1.71574 1.38893C2.85957 0.462976 4.03064 0 5.22894 0C6.75404 0 8.08851 0.762553 9.23234 2.28766L24.9191 23.9387L22.6315 23.6119L37.0928 2.45106C38.2366 0.81702 39.5983 0 41.1779 0Z" fill="url(#paint4_linear_11_4396)"/>
<defs>
<linearGradient id="paint0_linear_11_4396" x1="209.634" y1="57.4366" x2="209.634" y2="0.245117" gradientUnits="userSpaceOnUse">
<stop stop-color="#FF2851"/>
<stop offset="1" stop-color="#FF7051"/>
</linearGradient>
<linearGradient id="paint1_linear_11_4396" x1="181.7" y1="57.4366" x2="181.7" y2="14.543" gradientUnits="userSpaceOnUse">
<stop stop-color="#FF2851"/>
<stop offset="1" stop-color="#FF7051"/>
</linearGradient>
<linearGradient id="paint2_linear_11_4396" x1="126.4" y1="57.4366" x2="126.4" y2="12.9089" gradientUnits="userSpaceOnUse">
<stop stop-color="#FF2851"/>
<stop offset="1" stop-color="#FF7051"/>
</linearGradient>
<linearGradient id="paint3_linear_11_4396" x1="67.2141" y1="58.2536" x2="67.2141" y2="13.726" gradientUnits="userSpaceOnUse">
<stop stop-color="#FF2851"/>
<stop offset="1" stop-color="#FF7051"/>
</linearGradient>
<linearGradient id="paint4_linear_11_4396" x1="23.04" y1="57.4366" x2="23.04" y2="0" gradientUnits="userSpaceOnUse">
<stop stop-color="#FF2851"/>
<stop offset="1" stop-color="#FF7051"/>
</linearGradient>
</defs>
</svg>
